<?xml version="1.0" encoding="utf-8"?>
<!-- Generator: Adobe Illustrator 22.0.1, SVG Export Plug-In . SVG Version: 6.00 Build 0)  -->
<svg version="1.1" id="Layer_1" xmlns="http://www.w3.org/2000/svg" xmlns:xlink="http://www.w3.org/1999/xlink" x="0px" y="0px"
	 viewBox="0 0 24 24" style="enable-background:new 0 0 24 24;" xml:space="preserve">
<style type="text/css">
	.st0{fill:#FFFFFF;}
</style>
<path class="st0" d="M18.8,8.7c-1.6-3.8-5.9-5.6-9.7-4.1c-1.6,0.7-3,1.9-3.8,3.5c-3.3,0.6-5.4,3.8-4.8,7C1,17.8,3.3,19.8,6,20h12.9
	c1.8,0,3.5-1,4.4-2.6c0.5-0.8,0.8-1.8,0.8-2.7C24,11.6,21.8,9.1,18.8,8.7z M21.5,16.5c-0.6,0.9-1.6,1.4-2.6,1.5H6
	c-1.7,0-3.3-1.1-3.8-2.8l0,0c-0.6-2.1,0.6-4.3,2.7-5l0,0c0.3-0.1,0.7-0.1,1.1-0.1h0.7c0.8-2.9,3.8-4.6,6.7-3.8
	c2,0.6,3.5,2.2,3.9,4.2v0.1H18c2.2,0,4,1.8,4,4C22,15.3,21.8,16,21.5,16.5z"/>
<polygon class="st0" points="12.9,9.8 16,12.9 12.9,16 12.9,14.1 8,14.1 8,11.6 12.9,11.6 "/>
</svg>
